# xmcd
#
# Track frame offsets: 
#        150
#        24027
#        42352
#        71864
#        96618
#        127879
#        159338
#        199759
#        225028
#        245632
#
# Disc length: 3680 seconds
#
# Revision: 0
# Processed by: cddbd v1.5.1PL0 Copyright (c) Steve Scherf et al.
# Submitted via: ExactAudioCopy v0.90b4
#
DISCID=7a0e5e0a
DTITLE=Johnny Reed and The Houserockers - Just My Luck
DYEAR=2003
DGENRE=Blues
TTITLE0=Bye Bye
TTITLE1=Just My Luck
TTITLE2=I'm Gonna Rise
TTITLE3=Rock Me Baby
TTITLE4=Shit
TTITLE5=In The Basement
TTITLE6=Driftin' N Driftin'
TTITLE7=It Ain't Cheatin
TTITLE8=Street Theory
TTITLE9=Isn't She Something
EXTD=
EXTT0=
EXTT1=
EXTT2=
EXTT3=
EXTT4=
EXTT5=
EXTT6=
EXTT7=
EXTT8=
EXTT9=
PLAYORDER=
